<?xml version="1.0" encoding="UTF-8" standalone="no"?>
<!-- Created with Inkscape (http://www.inkscape.org/) -->

<svg
   width="4.233222mm"
   height="3.8364666mm"
   viewBox="0 0 4.233222 3.8364666"
   version="1.1"
   id="svg37713"
   inkscape:version="1.1.1 (1:1.1+202109281949+c3084ef5ed)"
   sodipodi:docname="license.svg"
   xmlns:inkscape="http://www.inkscape.org/namespaces/inkscape"
   xmlns:sodipodi="http://sodipodi.sourceforge.net/DTD/sodipodi-0.dtd"
   xmlns="http://www.w3.org/2000/svg"
   xmlns:svg="http://www.w3.org/2000/svg">
  <sodipodi:namedview
     id="namedview37715"
     pagecolor="#ffffff"
     bordercolor="#666666"
     borderopacity="1.0"
     inkscape:pageshadow="2"
     inkscape:pageopacity="0.0"
     inkscape:pagecheckerboard="0"
     inkscape:document-units="mm"
     showgrid="false"
     inkscape:zoom="0.68684764"
     inkscape:cx="460.80088"
     inkscape:cy="212.56534"
     inkscape:window-width="1920"
     inkscape:window-height="1043"
     inkscape:window-x="0"
     inkscape:window-y="0"
     inkscape:window-maximized="1"
     inkscape:current-layer="layer1" />
  <defs
     id="defs37710" />
  <g
     inkscape:label="Layer 1"
     inkscape:groupmode="layer"
     id="layer1"
     transform="translate(17.139983,-92.073989)">
    <path
       fill-rule="evenodd"
       d="m -14.824909,92.272426 a 0.1984375,0.1984375 0 0 0 -0.396875,0 v 0.330729 h -0.26035 c -0.0807,0 -0.159808,0.02117 -0.229923,0.06086 l -0.340783,0.194997 a 0.06614583,0.06614583 0 0 1 -0.03307,0.0087 h -0.591079 a 0.1984375,0.1984375 0 0 0 0,0.396875 h 0.113242 l -0.5588,1.241425 a 0.1984375,0.1984375 0 0 0 0.04075,0.221721 l 0.14023,-0.14023 -0.14023,0.14023 v 2.64e-4 l 5.3e-4,5.29e-4 5.29e-4,5.29e-4 0.0016,0.0016 0.0042,0.004 0.01191,0.01058 a 0.92974583,0.92974583 0 0 0 0.181504,0.11906 1.1885083,1.1885083 0 0 0 0.535252,0.12012 c 0.232833,0 0.411692,-0.05821 0.535252,-0.12012 a 0.93001042,0.93001042 0 0 0 0.181504,-0.119063 l 0.01191,-0.01058 0.0042,-0.004 0.0016,-0.0016 5.29e-4,-5.29e-4 2.65e-4,-5.29e-4 -0.139963,-0.140491 0.140229,0.14023 a 0.1984375,0.1984375 0 0 0 0.04075,-0.221721 l -0.5588,-1.241425 h 0.04286 c 0.0807,0 0.159808,-0.02117 0.229923,-0.06085 l 0.341048,-0.194998 a 0.06614583,0.06614583 0 0 1 0.03281,-0.0087 h 0.26035 v 2.513541 h -0.661458 a 0.1984375,0.1984375 0 0 0 0,0.396875 h 1.719792 a 0.1984375,0.1984375 0 0 0 0,-0.396875 h -0.661459 v -2.51355 h 0.26035 a 0.06614583,0.06614583 0 0 1 0.03281,0.0087 l 0.341313,0.194734 c 0.06985,0.04022 0.14896,0.06112 0.229658,0.06112 h 0.04286 l -0.5588,1.241425 a 0.1984375,0.1984375 0 0 0 0.04075,0.221721 l 0.140229,-0.14023 -0.140229,0.14023 v 2.64e-4 l 5.29e-4,5.29e-4 5.29e-4,5.29e-4 0.0016,0.0016 0.0042,0.004 0.01191,0.01058 a 0.93053958,0.93053958 0 0 0 0.181504,0.119063 1.1885083,1.1885083 0 0 0 0.535252,0.120121 c 0.232834,0 0.411692,-0.05821 0.535252,-0.120121 a 0.92921667,0.92921667 0 0 0 0.181506,-0.119066 l 0.01191,-0.01058 0.0026,-0.0027 0.0016,-0.0013 0.0016,-0.0016 5.29e-4,-5.29e-4 2.64e-4,-5.29e-4 -0.139973,-0.140491 0.140229,0.14023 a 0.1984375,0.1984375 0 0 0 0.04075,-0.221721 l -0.558536,-1.241425 h 0.112978 a 0.1984375,0.1984375 0 0 0 0,-0.396875 h -0.59108 a 0.06614583,0.06614583 0 0 1 -0.03281,-0.0087 L -14.3349,92.664274 a 0.46302083,0.46302083 0 0 0 -0.229394,-0.06112 h -0.260615 z m -1.866635,2.242873 c 0.07541,0.03572 0.189971,0.07223 0.345281,0.07223 0.15531,0 0.269875,-0.03651 0.345281,-0.07223 l -0.345281,-0.767292 z m 2.645833,0 c 0.07541,0.03572 0.189971,0.07223 0.345281,0.07223 0.155311,0 0.269875,-0.03651 0.345282,-0.07223 l -0.345282,-0.767292 z"
       id="path37838"
       style="stroke-width:0.264583" />
  </g>
</svg>
