<?xml version="1.0" encoding="UTF-8" standalone="no"?>
<!-- Created with Inkscape (http://www.inkscape.org/) -->

<svg
   width="10.002225mm"
   height="11.475225mm"
   viewBox="0 0 10.002225 11.475225"
   version="1.1"
   id="svg32791"
   inkscape:version="1.1.1 (1:1.1+202109281949+c3084ef5ed)"
   sodipodi:docname="logowhite.svg"
   xmlns:inkscape="http://www.inkscape.org/namespaces/inkscape"
   xmlns:sodipodi="http://sodipodi.sourceforge.net/DTD/sodipodi-0.dtd"
   xmlns="http://www.w3.org/2000/svg"
   xmlns:svg="http://www.w3.org/2000/svg">
  <sodipodi:namedview
     id="namedview32793"
     pagecolor="#ffffff"
     bordercolor="#666666"
     borderopacity="1.0"
     inkscape:pageshadow="2"
     inkscape:pageopacity="0.0"
     inkscape:pagecheckerboard="0"
     inkscape:document-units="mm"
     showgrid="false"
     inkscape:zoom="0.66368547"
     inkscape:cx="36.915077"
     inkscape:cy="445.9944"
     inkscape:window-width="1920"
     inkscape:window-height="1043"
     inkscape:window-x="0"
     inkscape:window-y="0"
     inkscape:window-maximized="1"
     inkscape:current-layer="layer1" />
  <defs
     id="defs32788" />
  <g
     inkscape:label="Layer 1"
     inkscape:groupmode="layer"
     id="layer1"
     transform="translate(-95.460635,-30.141582)">
    <path
       id="rect846-3"
       style="fill:#ffffff;stroke-width:0.250654;stroke-linecap:round"
       d="m 97.571825,30.141582 c -1.16958,0 -2.11119,0.941483 -2.11119,2.111062 v 7.252971 c 0,1.169579 0.94161,2.111192 2.11119,2.111192 h 2.15342 0.15271 c 0.0795,0 0.157715,-0.0048 0.234845,-0.01321 2.99649,-0.198083 5.35006,-2.676059 5.35006,-5.7244 0,-3.048734 -2.35418,-5.52701 -5.35123,-5.72453 -0.0767,-0.0084 -0.154625,-0.01308 -0.233675,-0.01308 h -0.15271 z m 0.009,2.039174 h 4.918095 v 1.056697 h -4.918095 z m 0,2.113394 h 5.760935 v 1.056696 h -5.760935 z m 0,2.113393 h 5.760935 v 1.056697 h -5.760935 z m 0,2.113393 h 2.916995 v 1.056827 h -2.916995 z" />
  </g>
</svg>
